Coordinates
version=1
nRows=9
nColumns=24
inDegrees=yes

Units are S.I. units (second, meters, Newtons, ...)
Angles are in degrees.

endheader
time	pelvis_tilt	pelvis_list	pelvis_rotation	pelvis_tx	pelvis_ty	pelvis_tz	hip_flexion_r	hip_adduction_r	hip_rotation_r	knee_angle_r	ankle_angle_r	subtalar_angle_r	mtp_angle_r	hip_flexion_l	hip_adduction_l	hip_rotation_l	knee_angle_l	ankle_angle_l	subtalar_angle_l	mtp_angle_l	lumbar_extension	lumbar_bending	lumbar_rotation
      6.09500000	     -8.24238022	      4.43601951	      4.76985251	     -0.82175805	     -0.00526768	     -0.30678458	     26.68890307	    -11.76358760	    -12.12365102	    -64.97321593	    -15.48915712	      1.12891788	     33.85392764	     12.25747766	     10.66859783	     19.42335782	    -15.23931533	      1.87491448	     -9.18764039	      0.23095398	      6.39833975	     -6.56552569	      1.48249116
      6.10000000	     -8.13442860	      4.24670637	      5.01295680	     -0.81690569	     -0.00485559	     -0.30720405	     27.16175930	    -11.66595238	    -12.39188296	    -64.44754078	    -14.94568546	      1.02537301	     33.95048886	     11.72209281	     10.47864356	     19.74075972	    -15.09965888	      2.12813890	     -9.09194758	      0.19879775	      6.20734828	     -6.39720282	      1.03018725
      6.10500000	     -8.03783705	      4.07058349	      5.19520026	     -0.81202314	     -0.00450507	     -0.30752918	     27.65012452	    -11.54174251	    -12.58561140	    -63.86262231	    -14.42737014	      0.95572543	     34.03311078	     11.18008663	     10.27086348	     19.98880115	    -14.90782355	      2.40009924	     -8.99071429	      0.25159176	      6.04645779	     -6.23862169	      0.69780555
      6.11000000	     -7.91786310	      3.91495803	      5.38988056	     -0.80716657	     -0.00416252	     -0.30785509	     28.08972755	    -11.43493599	    -12.77512640	    -63.21054323	    -13.89845386	      0.92961855	     34.10827722	     10.61002488	     10.07012153	     20.19885241	    -14.69840314	      2.66083486	     -8.81503372	      0.37806046	      5.85312382	     -6.09691711	      0.32770651
      6.11500000	     -7.76598095	      3.78180102	      5.57713762	     -0.80233027	     -0.00381369	     -0.30814396	     28.47558590	    -11.33327246	    -12.93864696	    -62.49074538	    -13.35926210	      0.94686164	     34.16132440	     10.00312110	      9.87283011	     20.33749662	    -14.46716880	      2.89320119	     -8.57800371	      0.59521911	      5.62072603	     -5.97342060	     -0.05901163
      6.12000000	     -7.62022852	      3.65315226	      5.74798752	     -0.79748359	     -0.00352319	     -0.30837420	     28.85341023	    -11.21505855	    -13.07049125	    -61.70913984	    -12.81763765	      1.01579093	     34.20429508	      9.39579682	      9.66369450	     20.44636524	    -14.21239412	      3.12953808	     -8.33182132	      0.90402011	      5.40061694	     -5.85900094	     -0.40558143
      6.12500000	     -7.43976190	      3.55683447	      5.91101417	     -0.79267491	     -0.00327612	     -0.30854688	     29.18094255	    -11.11331235	    -13.17689342	    -60.87865665	    -12.24940388	      1.11706206	     34.21392755	      8.75175554	      9.47273380	     20.51935870	    -13.94738840	      3.34982395	     -8.06750124	      1.38012789	      5.13190464	     -5.77939971	     -0.73952642
      6.13000000	     -7.29713207	      3.45024321	      6.07297920	     -0.78782744	     -0.00308326	     -0.30870463	     29.52323110	    -10.99087771	    -13.26108217	    -59.97466469	    -11.69529626	      1.29290815	     34.23926686	      8.14316127	      9.26925979	     20.59297885	    -13.66864860	      3.53503999	     -7.84413217	      1.83679893	      4.91761315	     -5.68901129	     -1.07827816
      6.13500000	     -7.14356374	      3.35852266	      6.23126453	     -0.78298514	     -0.00292990	     -0.30881952	     29.83255932	    -10.86997478	    -13.32265274	    -59.01016068	    -11.13993320	      1.51380951	     34.25777675	      7.52217764	      9.07569821	     20.67274281	    -13.38928973	      3.70782367	     -7.64698608	      2.30875378	      4.68976468	     -5.61628888	     -1.40549072
